<!DOCTYPE svg PUBLIC "-//W3C//DTD SVG 1.1//EN" "http://www.w3.org/Graphics/SVG/1.1/DTD/svg11.dtd">
<!-- Uploaded to: SVG Repo, www.svgrepo.com, Transformed by: SVG Repo Mixer Tools -->
<svg fill="#f1ad0e" version="1.1" id="Capa_1" xmlns="http://www.w3.org/2000/svg" xmlns:xlink="http://www.w3.org/1999/xlink" width="800px" height="800px" viewBox="0 0 481.636 481.635" xml:space="preserve" stroke="#f1ad0e">

<g id="SVGRepo_bgCarrier" stroke-width="0"/>

<g id="SVGRepo_tracerCarrier" stroke-linecap="round" stroke-linejoin="round"/>

<g id="SVGRepo_iconCarrier"> <g> <g> <path d="M284.226,0.167c-0.405-0.036-0.761,0.015-1.147,0.01c-0.025,0-0.051-0.01-0.076-0.01 C168.636-3.796,48.425,62.669,58.814,191.272c0.041,0.521,0.17,0.982,0.264,1.467c-0.15,1.331-0.15,2.724,0.173,4.238 c6.271,29.348-3.354,55.149-27.444,73.141c-1.104,0.822-1.95,1.767-2.689,2.752c-2.435,1.6-4.357,4.053-5.393,7.023 c-4.519,12.969-1.086,26.172,9.278,35.195c1.708,1.482,3.687,2.493,5.746,3.036c6.69,3.697,13.685,6.154,20.949,7.871 c-1.493,8.054-0.759,16.198,3.12,23.866c-7.243,14.117-2.435,29.691,11.865,38.191c0.807,0.482,1.612,0.843,2.404,1.122 c2.427,2.89,2.661,7.531,1.767,11.995c-0.277,1.365-0.312,2.731-0.208,4.062c-0.063,1.209-0.025,2.438,0.208,3.677 c3.77,19.773,20.66,30.691,39.986,31.042c1.041,0.021,2.001-0.087,2.907-0.27c0.894,0.041,1.831-0.01,2.798-0.167 c31.037-5.033,66.375-2.22,78.033,31.869c2.331,6.81,8.559,9.12,14.14,8.221c1.881,1.412,4.357,2.214,7.478,1.996 c56.241-3.931,111.987-12.101,167.83-19.596c1.976-0.265,3.687-0.904,5.164-1.809c6.77-2.112,12.238-9.688,7.866-17.854 c-37.313-69.568,38.328-145.464,52.684-212.295c0.315-1.445,0.32-2.783,0.193-4.058C473.106,116.222,397.155,10.338,284.226,0.167 z M434.112,221.092c-0.147,1.016-0.167,1.988-0.111,2.922c-15.595,71.509-83.984,140.64-56.909,215.515 c-50.855,6.906-101.676,13.995-152.903,17.58c-0.363,0.025-0.68,0.122-1.028,0.178c-18.309-40.751-60.91-48.058-103.06-41.675 c-0.421-0.051-0.812-0.143-1.264-0.152c-4.799-0.092-7.305-0.589-11.05-2.874c0.328,0.102-1.924-1.696-1.904-1.666 c-0.322-0.325-0.523-0.518-0.67-0.645c0-0.097-0.129-0.386-0.602-1.153c-0.713-1.143-1.239-2.752-1.676-4.57 c2.173-15.01-2.089-28.05-14.667-37.647c-1.011-0.767-2.143-1.198-3.313-1.483c-0.363-0.305-0.716-0.599-1.097-0.984 c0.069,0.03,0.005-0.122-0.213-0.473c0-0.31-0.021-0.411-0.056-0.381c0.15-0.649,0.294-1.3,0.523-1.93 c0.005-0.025,1.831-2.858,2.435-3.712c1.688-2.382,2.034-5.271,1.503-8.049c0.502-2.741,0.145-5.605-1.503-7.992 c-4.633-6.713-3.722-12.426,0-19.484c5.33-10.101-4.271-19.321-12.776-18.377c-0.089-0.011-0.168-0.041-0.254-0.056 c-8.628-1.138-16.968-3.662-24.445-8.13c-0.536-0.315-1.062-0.508-1.587-0.747c-0.374-0.543-0.721-1.097-1.034-1.67 c-0.053-0.158-0.094-0.295-0.167-0.519c-0.061-0.284-0.104-0.472-0.145-0.655c-0.021-0.563-0.005-1.117,0.02-1.681 c0.041-0.152,0.12-0.503,0.224-1.046c31.115-24.313,44.48-57.731,36.909-96.791c0.015-0.49,0.066-0.947,0.025-1.468 C73.978,75.679,181.521,21.155,282.997,24.668c0.32,0.01,0.604-0.046,0.914-0.056c0.112,0.01,0.203,0.045,0.314,0.056 C380.565,33.347,447.838,127.304,434.112,221.092z"/> </g> </g> </g>

</svg>