<svg width="58" height="60" xmlns="http://www.w3.org/2000/svg" stroke="#f1ad0e" xml:space="preserve" version="1.1" fill="#f1ad0e">

 <g>
  <title>Layer 1</title>
  <g stroke-width="0" id="SVGRepo_bgCarrier"/>
  <g stroke-linejoin="round" stroke-linecap="round" id="SVGRepo_tracerCarrier"/>
  <g stroke-width="0" id="SVGRepo_iconCarrier">
   <g id="svg_1">
    <g id="svg_2">
     <path id="svg_3" d="m33.00097,2.01934c-0.05093,-0.00416 -0.09569,0.00173 -0.14423,0.00116c-0.00314,0 -0.00641,-0.00116 -0.00956,-0.00116c-14.38067,-0.45778 -29.49616,7.21977 -28.18984,22.07503c0.00516,0.06018 0.02138,0.11343 0.0332,0.16946c-0.01886,0.15375 -0.01886,0.31466 0.02175,0.48954c0.78852,3.39006 -0.42174,6.3704 -3.45085,8.44871c-0.13882,0.09495 -0.2452,0.20411 -0.33812,0.31789c-0.30618,0.18482 -0.54786,0.46817 -0.67812,0.81124c-0.56823,1.49808 -0.13656,3.0232 1.16663,4.06547c0.21477,0.17119 0.46361,0.28797 0.72251,0.3507c0.84121,0.42705 1.72077,0.71086 2.63416,0.9092c-0.18773,0.93034 -0.09544,1.87107 0.39231,2.75682c-0.91074,1.63069 -0.30618,3.42968 1.49192,4.41154c0.10147,0.05568 0.2027,0.09738 0.30228,0.12961c0.30517,0.33383 0.3346,0.86993 0.22219,1.38557c-0.03483,0.15767 -0.03923,0.31546 -0.02615,0.46921c-0.00792,0.13965 -0.00314,0.28162 0.02615,0.42474c0.47405,2.28403 2.59782,3.5452 5.0279,3.58574c0.1309,0.00243 0.25161,-0.01005 0.36553,-0.03119c0.11241,0.00474 0.23023,-0.00116 0.35182,-0.01929c3.90264,-0.58137 8.34608,-0.25644 9.81198,3.68127c0.2931,0.78664 1.07622,1.05347 1.77798,0.94963c0.23652,0.1631 0.54786,0.25574 0.94029,0.23056c7.07182,-0.45408 14.0814,-1.39782 21.10318,-2.26358c0.24846,-0.03061 0.46361,-0.10442 0.64933,-0.20896c0.85127,-0.24396 1.53882,-1.11909 0.98908,-2.06236c-4.69179,-8.03598 4.81942,-16.80292 6.62456,-24.52274c0.03961,-0.16692 0.04024,-0.32147 0.02427,-0.46875c1.90787,-12.67924 -7.64231,-24.91017 -21.84216,-26.08505zm18.84687,25.51962c-0.01848,0.11736 -0.021,0.22964 -0.01396,0.33753c-1.96094,8.26019 -10.56027,16.24569 -7.15582,24.89469c-6.39458,0.79773 -12.78488,1.6166 -19.22624,2.03071c-0.04564,0.00289 -0.0855,0.01409 -0.12926,0.02056c-2.3022,-4.70725 -7.65891,-5.5513 -12.95891,-4.81399c-0.05294,-0.00589 -0.1021,-0.01652 -0.15894,-0.01756c-0.60343,-0.01063 -0.91854,-0.06804 -1.38944,-0.33198c0.04124,0.01178 -0.24193,-0.19591 -0.23941,-0.19244c-0.04049,-0.03754 -0.06576,-0.05984 -0.08425,-0.07451c0,-0.0112 -0.01622,-0.04459 -0.0757,-0.13319c-0.08965,-0.13203 -0.15579,-0.31789 -0.21074,-0.52789c0.27324,-1.73384 -0.26267,-3.24013 -1.84425,-4.3487c-0.12712,-0.0886 -0.26946,-0.13838 -0.41658,-0.17131c-0.04564,-0.03523 -0.09003,-0.06919 -0.13794,-0.11366c0.00868,0.00347 0.00063,-0.01409 -0.02678,-0.05464c0,-0.03581 -0.00264,-0.04748 -0.00704,-0.04401c0.01886,-0.07497 0.03697,-0.15017 0.06576,-0.22294c0.00063,-0.00289 0.23023,-0.33013 0.30618,-0.42878c0.21225,-0.27515 0.25576,-0.60887 0.18899,-0.92976c0.06312,-0.31662 0.01823,-0.64745 -0.18899,-0.92318c-0.58256,-0.77544 -0.46801,-1.43536 0,-2.25065c0.6702,-1.16679 -0.53704,-2.23182 -1.60647,-2.12277c-0.01119,-0.00127 -0.02112,-0.00474 -0.03194,-0.00647c-1.0849,-0.13145 -2.13358,-0.42301 -3.07375,-0.93912c-0.0674,-0.03639 -0.13354,-0.05868 -0.19955,-0.08629c-0.04703,-0.06272 -0.09066,-0.12672 -0.13002,-0.19291c-0.00666,-0.01825 -0.01182,-0.03408 -0.021,-0.05995c-0.00767,-0.03281 -0.01308,-0.05452 -0.01823,-0.07566c-0.00264,-0.06503 -0.00063,-0.12903 0.00251,-0.19418c0.00516,-0.01756 0.01509,-0.0581 0.02817,-0.12083c3.91244,-2.80846 5.59298,-6.66866 4.64099,-11.18058c0.00189,-0.0566 0.0083,-0.10939 0.00314,-0.16957c-1.1743,-13.35302 12.34831,-19.65123 25.10804,-19.24544c0.04024,0.00116 0.07595,-0.00531 0.11493,-0.00647c0.01408,0.00116 0.02553,0.0052 0.03948,0.00647c12.11393,1.00253 20.57293,11.85575 18.847,22.68944z"/>
    </g>
   </g>
  </g>
 </g>
</svg>